<?xml version="1.0" encoding="utf-8"?>
<!-- Generator: Adobe Illustrator 19.0.0, SVG Export Plug-In . SVG Version: 6.00 Build 0)  -->
<svg version="1.0" id="Layer_1" xmlns="http://www.w3.org/2000/svg" xmlns:xlink="http://www.w3.org/1999/xlink" x="0px" y="0px"
	 width="1400px" height="980px" viewBox="0 0 1400 980" enable-background="new 0 0 1400 980" xml:space="preserve">
<rect id="XMLID_58_" fill="#27160F" width="1400" height="980"/>
<path id="XMLID_4_" fill="#342416" d="M1400,748.3c-142.9-79.5-314.5-96.7-479-111.5c-134.9-12.1-270.1-24.2-405.5-19.9
	C339.9,622.4,165.3,655.8,0,715.2V980h1400V748.3z"/>
<path id="XMLID_29_" fill="#2A0E06" d="M1351.6,950.7c-5.9,2.8-12.7,2.7-19.3,2.8c-15.7,0.4-31.7,2.8-45.3,10.6
	c-7.9,4.5-14.9,10.7-22.4,15.9H1400V748.3c-142.9-79.5-314.5-96.7-479-111.5c-134.9-12.1-270.1-24.2-405.5-19.9
	C339.9,622.4,165.3,655.8,0,715.2V980h76.3c-2.6-0.8-5.1-1.5-7.6-2.3c-7.9-2.6-16-6.7-19.8-14c-17.1-32.6,62.5-31.4,77-31.1
	c32.3,0.8,64.6,1.6,96.9,2.5c12.8,0.3,25.7,0.6,38.1-2.4c8.3-2.1,16.2-5.6,24.4-8.2c20.4-11.7,62.2-9,84.8-7
	c26.8,2.4,54.9-10.1,80.7-17.2c3.2-0.9,7-2.4,7.5-5.7c0.7-4.4-4.9-6.8-9.4-7.4c-32.4-4.4-65.2,4.1-97.8,1.6
	c-3.2-0.2-7.1-1.1-7.9-4.2c-1.1-4.1,4.1-6.8,8.2-7.9c61.8-15.4,124.1-28.3,186.7-39.8c13.2-2.4,25.6-3.8,37.5-9.3
	c10.6-4.9,20.5-7.9,32-9.5c21.8-3,47.1-2.1,64.6-17.8c1.5-1.4,3.1-3.1,3-5.2c-0.2-4-5.5-5.1-9.4-5c-17.7,0.3-35.5,0.9-53.2,0.9
	c-7.4,0-30.9-1.7-19.5-12.7c8.9-8.6,37.6-10.6,49.6-13c17.2-3.4,34.7-5.7,52.2-7c5.1-0.4,10.4-0.7,14.6-3.6s6.4-9.2,3.2-13.1
	c-1.9-2.4-5.1-3.2-8.1-3.8c-25.6-5.3-54.6-8-80.6-5.9c-5.8,0.5-11.9,1.1-17.4-1c-5.3-2-9.3-6.4-13.2-10.6
	c-10.4-11.4-20.8-22.8-31.2-34.1c-3.7-4-7.5-8.4-8.5-13.8c-1.9-10.4,7.9-19.7,18.2-22s20.9,0.3,31.4,1.3c15,1.5,30.1-0.2,45.1-2.1
	c12.6-1.6,25.1-3.2,37.8-3.9c15.9-0.8,31.8,0,47.7,0.9c54.5,2.8,109,5.7,163.5,8.5c14.7,0.8,30.1,1.7,42.8,9.3
	c-10.4,10.9-25.2,16.2-39.5,21.2c-37.6,13.5-75.5,24.1-113.1,36.9c-3.5,1.2-7.5,2.9-8.3,6.5c-0.9,4,2.8,7.7,6.6,9.2
	c5,2.1,10.6,2.3,16.1,2.4c61.3,1.7,121.9,7.7,183.1,12.5c7.3,0.6,14.9,1.4,21,5.4s9.8,12.7,6,18.9c-2.2,3.7-6.4,5.7-10.3,7.5
	c-16.2,7.4-32.3,14.9-48.5,22.3c-13.5,6.2-27,12.4-41.2,16.7c-10.7,3.2-21.7,5.3-32.7,7.4c-25.1,4.7-50.2,9.5-75.3,14.2
	c-6.9,1.3-15.1,3.9-16.5,10.7c-2.1,10.2,12.2,14.8,22.6,14.9c19.4,0.3,38.8-1.9,58.2-0.1c16.7,1.5,43.5,1.8,56.7,12.7
	c1.4,1.2,2.8,2.6,3.2,4.4c1.4,6.2-8.2,8.3-11.9,13.5c-3.8,5.3,0.1,13.2,6,16c5.9,2.8,12.8,1.9,19.2,0.9c18.4-2.7,36.9-5.4,54.8-10.6
	c15.2-4.4,30.5-10.7,46.3-9.6c17.4,1.2,31.4,8.1,48.7,3.5c17.6-4.7,33.8-1.5,51.7,2.1c8.6,1.7,17.1,4.2,25.8,4.4
	c13.5,0.3,26.5-5.1,39.7-8c19.4-4.3,39.3-3.4,58.8-0.1c10.3,1.7,20.4,4.2,30.5,6.9c3.9,1,10.7,1.6,14,3.9c2.7,1.8,2.7,5.3,5.3,6.8
	c6.8,3.6,14.2,5.9,21.8,7c8,1.1,18.1,2.1,21,9.7C1362.1,941,1357.5,947.9,1351.6,950.7z"/>
<path id="XMLID_59_" fill="#4F3828" d="M1229,937.2c-32.5,1.2-64.9,19.9-96.2,10.6c-13.3-4-23-10.4-37-9.1
	c-13.7,1.2-25.9,4.5-40.5,2.9c-8-0.9-16-2.6-24.1-1.7c-9.2,1-17.7,5.2-26.4,8.2c-30.8,10.5-63.3,4.8-95,4
	c-14.9-0.4-29.7,2.4-44.6,2.4c-6.6,0-15.1-2.1-15.9-8.7c-0.6-4.7,3.3-8.7,7.4-11c4.1-2.3,8.8-3.7,12.1-7.1s4-9.8,0-12.3
	c-2.6-1.6-5.7-1.6-8.2-3.3c-2.1-1.5-3.6-4.2-5.8-5.8c-4.6-3.4-10.1-4.7-15.7-5.4c-10.9-1.4-21.8,0.7-32.7-0.6
	c-25.4-3-50.5-8.5-74.9-16c-4.4-1.4-9.6-3.7-10-8.3c-0.2-2,0.6-3.9,1.5-5.7c6.9-13.6,22.3-26.2,36.4-31.5c8.9-3.4,18.5-6,25.7-12.3
	c8.7-7.7,12.8-19.8,22.1-26.7c6.4-4.7,14.5-6.3,22.2-8.2c10-2.4,19.8-5.4,29.5-8.9c4.1-1.5,9-4.8,7.7-8.9c-0.4-1.3-1.4-2.3-2.5-3.2
	c-10.1-7.9-24.6-2.1-37.4-1.6c-11.3,0.4-22.4-3.6-33.7-3.1c-8,0.4-15.7,3-23.6,4c-9.6,1.2-15.9,1.7-25.7-0.2
	c-5.7-1.1-11.6-1.2-17.3-0.2c-3,0.5-6.4,1.9-6.9,4.8c-0.3,1.9,0.8,3.9,2.4,5.1s3.5,1.7,5.5,2.2c7.6,2,16.9,3.3,22.5,9.4
	c0.9,1,1.7,2.2,1.6,3.5c-0.1,1.1-0.8,2.1-1.5,2.9c-2.5,3.1-5.5,5.7-8.7,8.1c-5.2,3.8-11,7-16.1,10.6c-10,6.8-22,11.6-33.1,16.3
	c-8.7,3.6-17.9,7.7-27,9.8c-7.5,1.7-15.1,0.8-22.5,4.1c-3.7,1.7-7.1,4.1-11,5.1c-2.6,0.7-5.4,0.9-8.1,0.8
	c-15.6-0.4-26.9-4.5-42.8-0.8c-10.2,2.4-20.5,4.8-30.7,7.2c-6.9,1.6-13.9,3.3-20,6.9c-0.7,0.5-1.5,1-1.9,1.8c-1,2.5,2.4,4.3,5,4.7
	c20.9,3,43.9-2.1,62.2,8.4c1.5,0.9,3,1.9,3.8,3.4c1.2,2.4,0.5,5.3-0.5,7.8c-3.4,9.2-8.6,18.2-16.8,23.6c-6.1,4-13.4,5.8-20.1,8.6
	c-7.6,3.1-10.3,8.9-16.2,13c-5,3.4-15,2.9-21.2,3.6c-15.7,1.9-31.7,3.8-46.4,10.1c-19.4,8.3-18.3,5.5-38.3-2.1
	c-19.1-7.2-38.6,0.2-56.4,7.9c-18,7.9-36,15.8-54,23.6h875.5c4.6-4.3,9.6-8.2,15.3-10.8c6.4-3,13.5-4.4,19.2-8.5
	c5.7-4.1,9.5-12.4,5.5-18.2C1241.4,937.7,1234.8,937,1229,937.2z"/>
<path id="XMLID_56_" fill="#4F3828" d="M838.2,670.8c-8.1-0.9-16.1-2.6-24.2-2.7c-10-0.1-19.9,2.2-29.9,2.2
	c-8.6-0.1-17-1.9-25.6-2.3c-24-1.1-47.7,9-71.7,6.9c-4.9-0.4-10-1.4-14.8,0s-9,6.2-7.8,11c1.4,5.6,8.4,7.1,14.1,8.2
	c21.3,4.2,40.9,16.6,53.7,34.2c1.6,2.2,3.5,4.8,6.2,5.1c4.9,0.7,7.6-5.9,6.7-10.7c-0.9-4.8-3.6-9.6-2.5-14.4c1.4-6,8.1-9.2,14.2-9.9
	c11.5-1.4,23,2.8,34.5,2.1c6.3-0.4,12.3-2.2,18.4-3.6c10-2.4,20.2-3.8,30.4-4.4c21.9-1.1,46.2,1.3,63.4-12.2
	c5.1-4,5.3-10.5-1.3-13.1c-4.4-1.7-9.8,0.9-14.2,1.7C871.7,671.7,854.5,672.6,838.2,670.8z"/>
<path id="XMLID_16_" fill="#4E1C1B" d="M275.8,0c-18.4,22.2-31.1,48.9-39.9,75.7c-30.4,92.6-21.8,191.8-6.8,287.4
	c8.7,55.6,21.4,114.5,64.6,154.6c9,8.3,20.1,16,32.9,16.2c20.4,0.4,35.7-18.7,37.8-37.2s-5-36.6-9.4-54.8
	c-15.5-63.2,1.1-128.8,17.7-191.8c8.8-33.4,17.9-67.5,38.2-96.4c16.7-23.7,40.4-43,56.1-67.3c14.4-22.3,21.1-48.4,37-70
	C509.3,9.2,515,4.1,521,0H275.8z"/>
<path id="XMLID_28_" fill="#390400" d="M376.9,51.5c11.4-15.3,23.2-31,39.6-40.7c7.4-4.4,15.4-7.4,23.2-10.8h-164
	c-18.4,22.2-31.1,48.9-39.9,75.7c-21.4,65.1-23.5,133.4-17.6,201.5c9.8,33.8,25.4,65.8,46.2,94.2c6.5,8.8,13.7,17.6,23.4,22.8
	c16.4,8.9,36.4,6,54.7,3c2.1-0.3,4.2-0.7,6.3-1.1c-1.4-48.6,11.2-98,23.7-145.8c2.5-9.4,5-18.8,7.7-28.2
	c-5.3-24.7-10.6-49.3-15.9-74c-4.7-21.7-11.9-48.4-3.7-70C364.4,68.3,370.7,59.8,376.9,51.5z"/>
<path id="XMLID_15_" fill="#5A3126" d="M0,677.3c3.9,1.1,8.1,2,12.2,2.6c47.2,6.7,93.5-14.4,141.4-16.8c21.5-1.1,43,1.6,64.3,4.4
	c88.9,11.6,177.4,24.8,265.5,39.7c10.6,1.8,21.7,3.6,32.3,1.8c10.6-1.9,20.7-8.5,21.1-17c0.2-5.1-3-9.9-6.4-14.3
	c-10.2-13.2-22.5-25.4-36.6-36.1c-13.8-10.5-29.2-19.7-41.4-31.3c-32.9-31.3-36.8-75.2-33.2-115.5c3.6-40.3,13.2-81.3,1.9-120.8
	c-2.9-10.1-10.4-22-23.7-21.9c-7.7,0.1-14.9,4.5-22.6,3.6c-8.7-1-13.5-8.3-16.4-14.8c-8.6-19.8-12.3-40.9-10.6-61.7
	c1.1-14.2,4.6-28.4,1.9-42.4c-4.5-23.5-25.7-43.1-34-66c-5.3-14.4-5.3-29.6-5.2-44.5c0.1-35.9-3.7-69.3-7.5-104.7
	c-0.9-8.2-3.6-15.3-7.8-21.5H0V677.3z"/>
<path id="XMLID_27_" fill="#452217" d="M483.4,707.1c10.6,1.8,21.7,3.6,32.3,1.8c10.6-1.9,20.7-8.5,21.1-17c0.2-5.1-3-9.9-6.4-14.3
	c-4.5-5.9-9.5-11.5-14.9-17c-17.4,4.7-36.8,4.8-50.1-6.6c-8.8-7.5-13.5-18.8-21.9-26.6c-7-6.5-16.1-10.1-24-15.5
	c-23.2-15.9-33.2-45.3-35.3-73.3s2.1-56.1,0.4-84.2c-0.9-14.3-3.9-29.7-14.6-39.3c-6.8-6.2-16-9.2-22.8-15.4
	c-17.9-16.2-14.4-48.3-33.6-62.9c-6.1-4.6-13.8-6.8-19.9-11.6c-11.1-8.7-14.3-24-16.6-38c-3.1-18.2-6.2-36.9-3.1-55.1
	c1.3-7.6,3.6-15.1,3.3-22.8c-0.6-15.4-11.5-28.3-16.4-42.9c-9-27.4,4.2-56.7,6.6-85.5c2.8-32.8-9-57.5-27.3-80.9H62.9
	C58,7,53.4,14.3,49.5,22C38.8,42.8,33.2,65.9,30,89.1c-4.7,34.9-3.9,70.5,2.1,105.1c5.3,30,16.3,57.6,19.8,87.5
	c7.6,65,49,122.3,57.9,187.6c5,36.6,1.2,74.1,8.7,110.3c6.5,31.2,22.3,60.7,44.8,83.1c18.3,0,36.5,2.2,54.5,4.6
	C306.8,679,395.3,692.2,483.4,707.1z"/>
<path id="XMLID_7_" fill="#804A39" d="M0,557.2c17.3,22.2,39.6,41.1,67.6,54.6c36.7,17.7,82,25.5,110,52
	c14.7,13.9,23.5,32.2,41.2,43.5c12.6,8.1,28.5,11.8,44,15c85.3,17.8,172.9,28,260.8,30.3c36.8,1,74.3,0.5,109.4-8.7
	c12.4-3.3,26.9-11.8,22.6-21.9c-4.2-9.8-20.6-9.5-33.2-10.2c-16.6-1-32-7.1-47.8-11.3c-59.2-15.8-129.9-7.2-178.3-39.5
	c-42.7-28.4-52-78.5-54.6-123.8c-2.6-45.3-2.8-94-35-130.7c-22.5-25.6-59.3-43.6-70.6-73.8c-6.8-17.9-3.2-37.3-5.4-56
	c-2.5-21.9-12.9-42.5-18.5-64c-14.8-56.9,3.7-114.8-0.6-172.2C210,19.3,208.2,8.5,195.7,0H0V557.2z"/>
<path id="XMLID_26_" fill="#68372B" d="M647.7,715c-17.3,17.5-45.2,29.5-64.6,15c-8.8-6.6-13.8-17.6-22.8-24
	c-9.9-7.2-23.1-7.7-34.3-12.7c-1.3-0.6-2.5-1.2-3.7-1.9c-45.2-5.2-91.3-7.3-126.1-30.4c-36.9-24.6-48.9-65.2-53.1-105
	c-1.7-0.9-3.4-1.7-5.2-2.5c-21.3-8.9-36-28.2-49.8-46.7c-13.9-18.7-27.8-37.4-41.7-56.1c-3-4-6.3-8.3-11.1-9.8
	c-3.9-1.3-8.1-0.5-12.2,0.2c-15.2,2.9-30.3,5.8-45.5,8.7c-10.8,2.1-23.1,3.8-31.8-2.9c-12.3-9.4-9.3-28.6-3.4-43
	c14.5-35.7,39.5-70.7,33.4-108.7c-3.6-22.4-17.8-41.9-22.4-64.1c-7.6-36.3,11-76.6-4.9-110.1c-5.2-10.9-13.5-19.9-20.5-29.8
	C109.8,65,102,32.1,105.6,0.3c0-0.1,0-0.2,0-0.3H0v557.2c17.3,22.2,39.6,41.1,67.6,54.6c36.7,17.7,82,25.5,110,52
	c14.7,13.9,23.5,32.2,41.2,43.5c12.6,8.1,28.5,11.8,44,15c85.3,17.8,172.9,28,260.8,30.3c36.8,1,74.3,0.5,109.4-8.7
	c12.4-3.3,26.9-11.8,22.6-21.9C654.1,718.6,651.3,716.5,647.7,715z"/>
<path id="XMLID_6_" fill="#935E4E" d="M0,683c80.6,37.8,186.6,12.5,277.1,33.7c40.2,9.4,76.1,27.8,115.2,39.8
	c39.1,12.1,85.3,17.2,121.5,0.4c13.6-6.3,24.8-15.2,36.6-23.4c-4.5-10.5-19.6-15.8-33.4-17.6c-13.9-1.8-28.5-1.5-41.2-6.3
	c-19.9-7.6-29.3-25.5-39.2-41.1s-25.6-32.3-47.7-32.6c-9.9-0.2-21.4,2.7-28.4-2.8c-3.3-2.6-4.5-6.3-5.9-9.7
	c-21.2-49.1-115.2-62.8-127.3-113.7c-2.6-10.9-2-24.1-13.4-30.6c-12.8-7.2-30.6-0.2-42.2,8.2c-11.6,8.4-23.7,18.9-39.4,18.6
	c-23.2-0.3-34.3-23-35.5-41.4c-1.2-18.3,1.4-36.8,7.6-54.5c4.8-13.8,11.9-27.1,15.3-41.1c3.5-14.4,3.2-29.1,2.9-43.7
	c-1.1-47.9-2.7-97.6-29-140.8c-10.1-16.5-23.6-31.7-30.9-49c-17.7-41.6-0.4-82.7-0.1-124c0-4.2-0.6-8-1.7-11.4H0V683z"/>
<path id="XMLID_25_" fill="#784230" d="M545.1,737.2c-0.2,0.1-0.5,0.2-0.7,0.2c-30.1,9.6-64.6,4.6-90.8-13.2
	c-12-8.2-24.2-19.5-38.7-17.7c-11.6,1.5-21.9,11.5-33.4,9.3c-5.3-1-9.8-4.5-13.7-8.2c-18.8-17.6-30.4-41.3-46.2-61.6
	c-15.8-20.3-39.1-38.2-64.7-35.7c-8.3,0.8-18.6,2.8-23.3-4c-2.2-3.3-2.1-7.5-3.4-11.3c-4.1-11.8-19.4-14.7-28.3-23.6
	c-7-7-9.4-17.2-12.1-26.8c-5.5-18.7-13.7-36.6-24.2-53.1c-9.8,7.2-20.4,14.4-33.4,14.3c-23.2-0.3-34.3-23-35.5-41.4
	c-0.8-12.8,0.2-25.7,3-38.3c-2.2-1.4-4.5-2.7-6.7-4c-12-6.8-24.9-12.6-34.7-22.3c-17.7-17.5-20.7-42.7-22.6-66.3
	c-1.8-22.7-7.8-48.1-4.7-70.5c1.8-13.2,5.7-26.1,7-39.3c2.8-27.9-5.6-55.6-9.9-83.3c-4.5-29-3.2-58.4,0.1-87.5
	c2-17.3,7.2-35.2,10.6-52.9H0v683c80.6,37.8,186.6,12.5,277.1,33.7c40.2,9.4,76.1,27.8,115.2,39.8c39.1,12.1,85.3,17.2,121.5,0.4
	C525.3,751.5,535.1,744.3,545.1,737.2z"/>
<path id="XMLID_5_" fill="#A88174" d="M490.9,769.1c-18.5-1.5-38.6-0.8-53.6-10.8c-7-4.7-12.3-11.4-19.9-15.1
	c-18-8.9-41.6,1.5-60.3-6.1c-12.1-5-19.2-16.3-27-26.1c-18-22.9-43-40.3-67.6-57.4c-6.1-4.2-12.4-8.6-19.9-10.2
	c-16.2-3.6-34.3,6.2-49.5-0.3c-5.2-2.2-9.3-6.1-12.8-10.2c-12.6-14.7-19.6-33.3-19.5-51.9c0.1-11.4,2.7-22.8,1.7-34.1
	c-2.8-31.4-31.6-55-58.3-75.1c-15-11.3-30.3-22.7-48.1-29.8c-11.5-4.6-24-7.3-34.9-13.1c-5.6-3-13-9.7-21.1-16.7v373.6
	c17-2.1,34-3.7,51-4.1c74-1.7,145.9,20.1,217.2,38.1c12.8,3.2,25.7,6.4,39,6.5c13.8,0.2,27.4-2.9,41.1-5c31.5-4.8,64-4.3,95.3,1.3
	c7,1.3,14.2,2.8,21.3,2c7.1-0.8,13.7-3.9,20-7c17.3-8.3,34.6-16.7,51.9-25C530.4,776.6,509.3,770.5,490.9,769.1z"/>
<path id="XMLID_22_" fill="#8D594E" d="M490.9,769.1c-1.5-0.1-3-0.2-4.6-0.3c-0.1,0-0.2,0-0.4,0c-1.4-0.1-2.8-0.2-4.2-0.3
	c-3.3-0.2-6.6-0.4-9.9-0.7c0,0,0,0,0,0c-2,4.5-3.8,9.1-7,12.8c-11.7,13.7-34.9,12.1-51.1,12.6c-24.5,0.8-39.8-27.2-65.3-22.5
	c-9.2,1.7-17.2,9.1-26.5,8.8c-10.5-0.4-18-10.1-23.5-19.1c-3.3-5.4-7.4-13.2-12.3-17.2c-6.5-5.3-18.7-4.3-22.3-12.9
	c-3.9-9.3,6-21.5,8.9-29.8c5.3-14.9-0.9-33.1-14.2-41.7c-8.5-5.5-19.2-7.3-26.6-14.2c-0.7-0.7-1.3-1.3-2-2.1
	c-12.5,1-25.5,5.1-36.7,0.4c-5.2-2.2-9.3-6.1-12.8-10.2c-12.6-14.7-19.6-33.3-19.5-51.9c0-9.4,1.8-18.8,1.9-28.1
	c-4.9,0-9.8,0.5-14.6,1.4c-10.3,2-21.8,5.7-30.7,0.1c-8.3-5.2-10.4-16.2-16-24.2c-17.1-24.2-62.9-27.2-65.7-63
	c-0.8-11,1.3-20.6-0.4-32.2c0,0,0,0,0,0c-2.3-0.8-4.6-1.7-6.9-2.6c-0.1-0.1-0.3-0.1-0.4-0.2c-1-0.4-2.1-0.9-3.1-1.4
	c-0.2-0.1-0.4-0.2-0.6-0.3c-1-0.5-2.1-1-3.1-1.5c-5.6-3-13-9.7-21.1-16.7v373.6c17-2.1,34-3.7,51-4.1c74-1.7,145.9,20.1,217.2,38.1
	c12.8,3.2,25.7,6.4,39,6.5c13.8,0.2,27.4-2.9,41.1-5c31.5-4.8,64-4.3,95.3,1.3c7,1.3,14.2,2.8,21.3,2c7.1-0.8,13.7-3.9,20-7
	c17.3-8.3,34.6-16.7,51.9-25C530.4,776.6,509.3,770.5,490.9,769.1z"/>
<path id="XMLID_3_" fill="#C0A79A" d="M414.4,807.5c-23.8-5-48-8.5-72.3-10.5c-15.1-1.2-31.2-2.2-43.5-10.2
	c-11.1-7.1-19-19.7-32.4-21.4c-8.1-1.1-16.4,2.3-24.5,0.9c-18.4-3.2-21.1-26.6-15.4-42.8c5.7-16.2,15.2-34.2,6.3-49.2
	c-3.7-6.2-10.2-10.7-14.7-16.5c-12.5-16.2-8-40.3-22.4-55.2c-21.9-22.7-68.8-7-91.6-28.9c-4.9-4.7-8-10.6-12.8-15.3
	c-15-14.7-42.7-14.6-55.9-30.6c-6.1-7.4-7.9-16.9-13.4-24.7c-5.3-7.4-13.5-11.8-21.7-12.8V905c1,0.2,2.1,0.3,3.2,0.5
	c11.9,1.5,24-0.3,36-1.9c74.7-10,150.6-12.3,225.8-6.7c5.9,0.4,13,0.3,16-4.3c4-6.3-4.1-13.4-11.7-15.8c-7.6-2.4-17-4.2-19.7-11.1
	c-3.4-8.7,7.4-16.5,17.2-18.7c26.7-5.8,56,6.4,81.8-2.2c16.7-5.6,30.4-19.6,48.2-19.8c6.3-0.1,12.7,1.7,18.9,0.6
	c6.2-1.1,12.2-6.9,9.7-12.2C423.6,809.8,418.7,808.4,414.4,807.5z"/>
<path id="XMLID_2_" fill="#4E1C1B" d="M878.8,45.9c15.4,25.9,48.1,39.4,67.3,63.1c24.8,30.6,23.6,73.2,44.7,106
	c11.8,18.4,30.4,33.2,38.8,53c6.9,16.3,6.3,34.2,5.5,51.7c-0.8,18.7-1.6,37.3-2.4,56c-0.4,10.5,0.6,23.4,11,27.9
	c11.6,5.1,24.2-4.7,32.2-13.9c81.4-95,92.8-224.5,85.6-344.8c-0.9-14.8-2.4-30.4-6.4-44.9H858.9C867.5,13.9,870.3,31.5,878.8,45.9z"
	/>
<path id="XMLID_35_" fill="#390400" d="M1161.6,44.9c-0.9-14.8-2.4-30.4-6.4-44.9H904.5c6.6,2.6,13.1,5.2,19,8
	c18.2,8.6,37.1,18.7,46.8,36.3c3.9,7,6,14.9,10,21.8c5,8.5,13.3,12.5,18.9,19.8c8.2,10.5,12.8,26.9,18.5,38.9
	c10.9,23.2,22.1,48.7,16.3,73.6c-3.6,15.7-13.5,28.7-23,42c7.3,8.6,14.3,17.5,18.6,27.6c6.9,16.3,6.3,34.2,5.5,51.7
	c-0.8,18.7-1.6,37.3-2.4,56c-0.3,7.6,0.2,16.5,4.5,22.6c1.1,0.5,2.2,0.9,3.3,1.3c5.1,1.9,10.3,3.4,15.6,4.5
	c7.5-2.2,14.7-8.4,19.8-14.4C1157.4,294.6,1168.8,165.2,1161.6,44.9z"/>
<path id="XMLID_13_" fill="#5A3126" d="M1400,0h-355.8c0.5,1.7,1,3.4,1.5,5c7.6,25.6,22.3,47.1,26.8,74c4.3,26.4,3.8,53.2,3.3,79.8
	c-0.6,32.3-1.6,66-17.8,94.8c-3.3,5.9-7.5,11.8-13.6,15.4c-5.3,3.1-11.7,4.4-17.2,7.2c-14.6,7.3-20.7,23.7-21.6,38.8
	c-1,15.1,1.9,30.4-0.6,45.4c-4.3,25.4-23.5,47.3-26.9,72.8c-2.8,20.9,5.4,41.7,6.9,62.8c1.8,24.6-5.4,49.3-1.7,73.7
	c5.4,36.2,36.8,67.9,75.7,76.8c17.1,3.9,35,3.6,52.3,6.6c26.6,4.6,52.5,16.9,79.4,13.5c15.5-1.9,29.8-9,45.3-11
	c12.9-1.6,26,0.4,39,1.5c42.4,3.7,85.9-2.2,125.1-17.2V0z"/>
<path id="XMLID_34_" fill="#452217" d="M1400,0h-304.2c4.9,8,9.2,16.4,10.1,26.4c1.7,17.3-4,34.6-3.1,51.9
	c1.2,23.4,14.1,44.3,24.3,65.5c4.1,8.4,7.8,17.2,8.3,26.5c0.6,11.5-3.9,22.7-8.2,33.4c-10.3,25.2-21.8,51.9-44.4,67.2
	c-7.6,5.1-16.3,8.8-23.3,14.8c-20.2,17.5-19.8,48.6-15.1,74.9s11.5,54.8-0.7,78.6c-4.3,8.4-10.7,15.5-14.7,24
	c-6,12.5-6.7,27.2-14,39c-7.2,11.7-19.8,18.7-31.3,26.6c-1.3,13.7-2.6,27.4-0.5,40.9c5.4,36.2,36.8,67.9,75.7,76.8
	c17.1,3.9,35,3.6,52.3,6.6c26.6,4.6,52.5,16.9,79.4,13.5c15.5-1.9,29.8-9,45.3-11c12.9-1.6,26,0.4,39,1.5
	c42.4,3.7,85.9-2.2,125.1-17.2V0z"/>
<path id="XMLID_12_" fill="#804A39" d="M1149.1,11.6c7,29.5-5.1,59.2,1.4,88.5c4.6,20.6,18.8,38.2,26.7,57.9
	c18.4,45.8-2.7,101.9-48,127.9c-14.7,8.5-32.1,14.4-42.3,27.3c-10.3,13-10.9,30.3-9.5,46.2c3.6,41.7,16.7,88-9.7,122.2
	c-11.8,15.4-30.2,25.7-42.4,40.9c-22.9,28.4-24,72.6-58.1,89.3c-14.3,7-32.1,7.4-45.2,16.1c-13.2,8.8-18.8,24-27.1,36.8
	c-13.7,20.8-36.6,36.5-62.5,42.5c-5,1.2-10.8,2.5-13.1,6.7c-4.4,8,8.1,15.1,17.9,15.7c32,1.8,62.3-14.8,94.3-15
	c40.1-0.3,76.9,25,116.9,22.6c16-1,32-6.4,47.8-3.8c13.4,2.2,24.7,9.9,37.2,14.7c35.8,14,76.8,3.9,115.8,5.1
	c50.7,1.5,104.9,21.8,150.6,4.7V0h-254.8C1146.8,3.7,1148.2,7.6,1149.1,11.6z"/>
<path id="XMLID_33_" fill="#68372B" d="M1400,0h-187.7c4.1,17.1,13.5,38.2,3.2,53.9c-5.4,8.2-13.9,14.4-17,23.7
	c-4.2,12.8,3.2,26.1,9.2,38.1c33.2,66.8,24.9,152.2-20.5,211.4c-8.1,10.6-17.7,21.2-19.3,34.4c-1.3,10.5,2.6,21.2,0.4,31.5
	c-4.4,20-27.2,29.8-36.2,47.5c-8.7,17.1-14.4,34.7-15,54c-0.6,17.2-2.5,37.1-16.9,46.6c-8.5,5.7-19.3,6-29.4,8
	c-15.7,3.1-32.1,10.8-43.3,22.5c-8,8.4-20.6,20.1-23.6,31.6c-2.5,9.3,0.7,28.1-9.7,33.5c-3.9,2-8.6,0.7-12.9,0.9
	c-6.2,0.2-12.3,3.6-15.7,8.8c-3.4,5.1-4.8,12.2-10.4,14.6c-4,1.8-8.7,0.3-13.1,0.4c-7.9,0.3-18.4,7.7-24.3,12.6
	c-9.6,8-15,20.2-24.9,27.7c-15.1,11.5-34,8.9-53.2,3.6c-2.3,0.7-4.7,1.4-7,1.9c-5,1.2-10.8,2.5-13.1,6.7c-4.4,8,8.1,15.1,17.9,15.7
	c32,1.8,62.3-14.8,94.3-15c40.1-0.3,76.9,25,116.9,22.6c16-1,32-6.4,47.8-3.8c13.4,2.2,24.7,9.9,37.2,14.7c0.6,0.2,1.2,0.4,1.7,0.6
	c28.3-6,56.3-13.5,84.5-19.8c35.8-8,72-14.1,108.2-20.1c12.1-2,24.5-4.1,36.5-1.4c12.9,2.9,23.9,10.9,35.1,17.9
	c0.1,0.1,0.2,0.1,0.3,0.2V0z"/>
<path id="XMLID_11_" fill="#935E4E" d="M1288.5,54.4c-9.8,25.8-26.3,50-30.1,77.1c-3,20.9,1.7,41.9,5.4,62.7
	c13.4,75.9,11.1,158.9-35.8,222.9c-24.2,33-59.3,59.3-78.2,95c-11.2,21.1-16.9,45.5-35.4,61.7c-28.1,24.7-79.9,25-96,57.4
	c-5,10.1-5.4,21.7-11,31.5c-16.4,28.9-64.8,26.1-90.7,48.6c-3.2,2.8-6.2,7.1-4.1,10.7c1.8,3.1,6.3,3.7,10.1,4
	c39.4,2.5,78.7,5.1,118.1,7.6c11.3,0.7,23.2,1.4,33.5-2.9c8-3.3,14.3-9.1,21.2-14c39.5-27.7,95.3-20.9,144.3-12.5
	c53.4,9.2,109,19.9,151.1,51.1c2.9,2.1,5.9,4.4,9,6.3V0h-106.7C1292.2,18.9,1294.3,39.2,1288.5,54.4z"/>
<path id="XMLID_32_" fill="#68372B" d="M1239.8,704.2c53.4,9.2,109,19.9,151.1,51.1c2.9,2.1,5.9,4.4,9,6.3V0h-54.3
	c2.7,11.5,7,23.6,7.8,31.2c2.6,26.2,1.3,52.6,0,78.8c-0.6,12.4-1.3,25.2-6.4,36.5c-4.5,9.9-12.2,18.8-12.9,29.7
	c-1.4,22,26,35.6,30.9,57.1c3.5,15.3-5.2,30.7-15.3,42.7c-10.1,12-22.2,23-27.8,37.6c-4.8,12.8-4.1,27.3-9.2,40
	c-8.7,21.8-32.5,34-43.6,54.7c-11.1,20.8-7.7,46.1-13,69.1c-7.2,31.2-32.3,57.5-63,66.4c-7.2,2.1-14.7,3.3-21.2,7.1
	c-11.4,6.7-17.1,19.9-23,31.7c-11.9,23.9-27.9,45.7-47.1,64.3c-4.6,4.4-9.5,8.8-15.4,10.9c-6.8,2.4-14.3,1.7-21.4,2.9
	c-23.3,4.2-37,28-56.6,41.2c-24.7,16.7-58.1,15.4-86,4.9c-2,1.4-4,2.8-5.9,4.4c-3.2,2.8-6.2,7.1-4.1,10.7c1.8,3.1,6.3,3.7,10.1,4
	c39.4,2.5,78.7,5.1,118.1,7.6c11.3,0.7,23.2,1.4,33.5-2.9c8-3.3,14.3-9.1,21.2-14C1135,689,1190.8,695.7,1239.8,704.2z"/>
<path id="XMLID_10_" fill="#A88174" d="M1400,289.6c-17.7,15-31.1,38-37.8,57.9c-5.3,16-7.7,33.1-16.8,47.7
	c-8.1,13.1-21.1,23.3-29.3,36.4c-17.4,27.7-11,63.5-26.7,92.1c-22.9,41.8-83.4,53.7-116.4,89.5c-26.5,28.7-36.7,73.4-75.4,86.1
	c-19.2,6.4-41.7,2.9-59.6,11.9c-16.7,8.5-25,25.7-36.5,39.6c-26.7,32.4-71.4,47.5-114,59.4c-11.3,3.2-25.2,10-22.7,20.5
	c2.2,9.3,15.4,11.6,25.9,11.8c26.1,0.7,52.3,1.5,78.4,2.2c36,1,72.2,2,107.8-2.6c43.7-5.7,85.5-19.6,125.9-35.3
	c37.9-14.7,83.1-2.1,123.8,2.3c24.1,2.6,49.1,5.1,73.3,4.2V289.6z"/>
<path id="XMLID_31_" fill="#8D594E" d="M1397.5,389.7c-5.7,7.2-13.9,10.6-18.4,18.4c-4.2,7.3-3.5,16.4-9,23.3
	c-8.4,10.6-24.9,10.4-35.2,19c-8,6.6-11,17.3-13.6,27.4c-9.2,35.7-14.7,73.8-26.3,108.6c-2.5,7.4-5.1,15-10.3,20.8
	c-16.2,18.1-52.6,13.8-60.2,36.9c-1.5,4.5-1.5,9.5-3.7,13.6c-4.8,9-16.9,10-26.9,12.1c-24.5,5.1-45.6,23.9-53.5,47.7
	c-6.7,20.3-7.2,47.1-26.8,55.6c-17.7,7.6-40.4-6.3-56.7,4c-5.7,3.6-9.4,9.6-14.4,14.2c-21.4,19.6-56.1,7.2-84.1,14.9
	c-19.1,5.3-35.8,20.2-55.6,19.8c-10.6-0.2-20.4-5-30.4-9c-5.3,3.5-8.8,8.2-7.5,13.8c2.2,9.3,15.4,11.6,25.9,11.8
	c26.1,0.7,52.3,1.5,78.4,2.2c36,1,72.2,2,107.8-2.6c43.7-5.7,85.5-19.6,125.9-35.3c37.9-14.7,83.1-2.1,123.8,2.3
	c24.1,2.6,49.1,5.1,73.3,4.2V386.1C1399.2,387.3,1398.4,388.5,1397.5,389.7z"/>
<path id="XMLID_9_" fill="#C0A79A" d="M1400,462.1c-14.6,5.8-28.7,14.4-39.9,23.1c-9.9,7.7-16.5,18.3-21.9,29
	c-13.8,27.4-21.5,57.4-22.3,87.5c-0.3,11.5,0,24.1-7.6,33.3c-8.5,10.3-24,13-35.2,20.8c-15.7,10.9-21.8,31-38.7,40.4
	c-10.8,6-24.3,6.7-35.3,12.3c-19.3,9.8-26.1,31.5-32.8,50.7s-18,40.5-39.6,44.9c-7.5,1.5-15.3,0.7-22.9,1.9
	c-14.3,2.3-26,11.5-39.6,16.3c-20.1,7.2-42.6,4.2-64.3,3.5c-21.6-0.7-45.7,1.9-60,16.7c-1.8,1.9-3.5,4.1-3.7,6.7
	c-0.6,6.8,8.8,10.2,16.2,11.1c69.5,8.6,140.1-13,209.7-5.5c43.3,4.7,76.6,14,114.7-8.7c35.9-21.4,40.4,1.3,60.3,25.1
	c8.2,9.8,38.4,9.1,62.9,7V462.1z"/>
<path id="XMLID_23_" fill="#A27A68" d="M396.8,825.1c6.3-0.1,12.7,1.7,18.9,0.6c6.2-1.1,12.2-6.9,9.7-12.2c-1.8-3.7-6.7-5.1-11-6
	c-4.2-0.9-8.5-1.7-12.8-2.5c-1.3,3.6-6.8,6.9-11.3,7.8c-7.9,1.7-16.2,2.8-24,4.8c-5.8,1.5-8.7,4.7-13.6,8.3
	c-10.8,7.9-25.9,5.8-38.6,1.7c-12.8-4.1-25.7-9.9-39-8c-4.2,0.6-8.2,1.9-12.4,2.2c-7.7,0.6-12.9-4.9-19.5-8
	c-6.9-3.3-14.1-6.1-21.8-6.8c-11.5-1-24.6,2.4-33.6-4.8c-5-4-7.4-10.5-11.3-15.6c-4.2-5.4-19.5-11.1-20.9,0
	c-0.3,2.3,0.5,4.6,1.2,6.8c5.5,16.5,10.1,30.9,13,48.1c0.7,3.9,1.3,8-0.1,11.7c-3.1,8.3-14.8,10.1-22.8,6c-7.9-4-13.1-11.7-19-18.3
	c-5.9-6.6-13.8-12.8-22.6-12c-6.7,0.6-12.3,5.1-18.7,7.1c-14,4.3-28.6-3.9-40.8-12.1c-5.3-3.6-11-7.9-11.9-14.2
	c-0.7-4.6,1.4-9.1,2-13.8c1.6-13-8.8-24.1-13.3-36.5c-4.3-11.9-3-25.1-4.9-37.6C15.4,705.6,7.7,690.8,0,676.3V905
	c1,0.2,2.1,0.3,3.2,0.5c11.9,1.5,24-0.3,36-1.9c74.7-10,150.6-12.3,225.8-6.7c5.9,0.4,13,0.3,16-4.3c4-6.3-4.1-13.4-11.7-15.8
	c-7.6-2.4-17-4.2-19.7-11.1c-3.4-8.7,7.4-16.5,17.2-18.7c26.7-5.8,56,6.4,81.8-2.2C365.3,839.3,379,825.3,396.8,825.1z"/>
<path id="XMLID_30_" fill="#A27A68" d="M1400,878.1V634c-11.4,17.3-25.6,33.5-28.1,53.8c-1.4,11.6,1.2,23.3,0.9,34.9
	c-0.3,11.7-4.5,24.5-14.9,29.7c-10.7,5.3-23.3,0.8-34.8-2.7c-16.7-5.2-37.2-7-49.6,5.4c-8.8,8.9-10.8,22.6-18.4,32.5
	c-9.2,12-24.9,16.5-39.5,20.3c-37.8,9.9-77.4,19.8-115.5,11.1c-6-1.4-11.9-3.2-17.8-5.1c-5.9,3-11.7,6.1-18,8.4
	c-20.1,7.2-42.6,4.2-64.3,3.5c-21.6-0.7-45.7,1.9-60,16.7c-1.8,1.9-3.5,4.1-3.7,6.7c-0.6,6.8,8.8,10.2,16.2,11.1
	c69.5,8.6,140.1-13,209.7-5.5c43.3,4.7,76.6,14,114.7-8.7c35.9-21.4,40.4,1.3,60.3,25.1C1345.3,880.9,1375.5,880.2,1400,878.1z"/>
<path id="XMLID_1_" fill="#D8C5BC" d="M126.5,628c-3.7,2.2-7.6,4.6-9.5,8.4c-4,8,2.7,17.6,10.5,22c12.8,7.2,29.1,7.2,41,15.8
	c8.7,6.3,13.9,16.3,18.7,25.9c1.2,2.4,2.9,5.1,5.6,5c2.3,0,3.9-2.2,4.9-4.2c4.6-8.8,4.7-19.6,1.3-28.9c-3.6-9.7-10.9-18.3-11.7-28.6
	c-0.4-5.3,0.8-11.1-2-15.6c-2.9-4.6-9-5.9-14.4-6.8C153.2,618.3,141.5,619.1,126.5,628z"/>
<path id="XMLID_21_" fill="#D8C5BC" d="M69.8,629.2c5.7,6.3,15.5,6.2,23.9,5.7c1.2-0.1,2.5-0.2,3.2-1.2c0.4-0.6,0.5-1.4,0.4-2.1
	c-0.2-6.3-4.5-11.7-8.6-16.5c-2-2.4-4.1-4.8-6.7-6.3c-4.9-2.8-15-1.7-17.6,4C62.4,617.3,66.7,625.8,69.8,629.2z"/>
<path id="XMLID_24_" fill="#D8C5BC" d="M72.2,784.7c0.1,1.1,0.1,2.1,0.3,3.2c0.7,5.3,3,10.7,7.4,13.7c6.9,4.6,16,1.7,24.3,1.8
	c12.5,0.1,32.2,23.4,41.5,18.6c4.4-14.6-8-29.1-8.8-44.3c-0.3-6.6,1.6-13.1,2-19.7c1.1-15.6-6.5-31.5-19.3-40.4
	c-21.6-15.1-53.3-9.7-74-26.1c-3.6-2.9-9.4-6.2-12.1-2.4c-1,1.4-1,3.3-0.8,5c1.7,15.3,12.2,26.3,22.1,37.2
	c10.4,11.5,17,24.8,17.3,40.7C72.3,776.1,72,780.4,72.2,784.7z"/>
<path id="XMLID_39_" fill="#D8C5BC" d="M0,592c11.3,4.9,24.8,7.4,35.6,10.8c2.8,0.9,6.2,1.7,8.5-0.1c1.5-1.1,2.2-3,2.4-4.8
	c0.6-5-1.7-9.9-4.7-13.8s-6.9-7.3-10-11.1c-4.6-5.6-7.7-12.4-8.9-19.5c-0.6-3.5-0.8-7.2-2.2-10.4c-2.3-5.4-7.5-9-12.7-11.7
	C5.4,530,2.7,528.8,0,528V592z"/>
<path id="XMLID_42_" fill="#D8C5BC" d="M1400,497.9c-4.6,4.6-8.6,9-11.5,11.9c-3.6,3.6-7.4,7.3-9.3,12c-2.3,5.6-1.8,11.9-2.6,17.9
	c-3.4,25-29.6,44.1-28.1,69.3c6.5,3.1,14-1.9,18.5-7.6c4.5-5.7,8.2-12.6,14.9-15.3c5.6-2.3,12.1-1,18.2-0.9V497.9z"/>
<path id="XMLID_37_" fill="#D8C5BC" d="M1196.8,770c-2.2,3.9-1.9,9.8,2.1,11.7c2.6,1.2,5.7,0.3,8.3-0.9
	c11.3-5.2,19.9-14.6,29.5-22.6c9.5-8,19.2-14.4,28.2-22.8c9.5-8.8,22.4-13.9,35.4-13.2c5.3,0.3,11.4,1.1,15.1-2.7
	c3-3.1,2.9-8.2,1.5-12.4s-4-7.8-5.2-12c-1.2-3.9-1.2-8-0.1-11.9c0.8-2.8,2.2-5.6,1.7-8.5c-0.7-4.7-6.1-7.5-10.8-7
	c-4.7,0.5-8.8,3.4-12.6,6.2c-11.1,8.4-19.1,20.4-30.6,28.2c-13,8.8-32.3,8.4-42,22.2c-3.7,5.3-4.7,12.2-6.3,18.3
	C1207.8,754.5,1202.4,759.9,1196.8,770z"/>
<path id="XMLID_38_" fill="#D8C5BC" d="M1349.2,670.2c4.4-3.9,11.1-13.3,14.4-18.2c2.1-3.1,3.5-7.1,1.9-10.4
	c-3.1-6.6-20.3,2.2-25.6,3.4c-3.7,0.9-7.3,3.1-8.8,6.6C1327.6,660,1339.8,678.5,1349.2,670.2z"/>
<path id="XMLID_36_" fill="#C6A59B" d="M322.1,734.6c1.6,0.1,3.5,0.2,4.6-1c1-1.1,0.9-2.9,0.3-4.2c-0.7-1.3-1.8-2.4-2.8-3.5
	c-4.5-4.9-7.2-11.1-10.6-16.7c-3.6-5.9-9.6-13.3-17.3-13.3c-7.3,0-11.3,8.4-8.1,14.6c2.9,5.6,10.2,9.4,14.1,14.5
	C307.7,732.1,313.2,733.9,322.1,734.6z"/>
<path id="XMLID_40_" fill="#C6A59B" d="M412,755.4c-3.6-1.6-17.5-5.6-20.4-1.2c-1.1,1.7-0.4,4.1,1,5.5c1.4,1.4,3.4,2.1,5.3,2.8
	c4.3,1.5,16.6,8.2,19.4,1c0.7-1.7,0.1-3.6-1-5S413.7,756.1,412,755.4z"/>
<path id="XMLID_41_" fill="#C6A59B" d="M96.9,491.6c-8,0.5,3.4,12.1,4.3,13c4.7,5.1,8.5,11,11.2,17.4c1.8,4.3,3.3,9.1,7.2,11.6
	c6,4,17.7,2.2,20.4-5.3c1.5-4.1-0.4-8.8-3.4-12c-3-3.2-7-5.3-10.7-7.6c-9.2-5.7-17.5-13.3-27.7-16.9
	C97.8,491.7,97.4,491.6,96.9,491.6z"/>
<path id="XMLID_43_" fill="#C6A59B" d="M1092.9,753.7c3.3,0.6,7.4,0.8,9.1-2.1c0.8-1.3,0.8-2.8,0.8-4.3c0-16.2,2.7-31.2-18.4-26.6
	c-10.6,2.3-22.7,7.7-32.1,13.1c-6.4,3.6-12.4,6-6.4,11.5C1053.4,752.2,1082.7,752,1092.9,753.7z"/>
<path id="XMLID_44_" fill="#C6A59B" d="M1270.9,572.1c-1.5-0.6-3.2-0.5-4.7-0.3c-12,1.6-23.5,3.4-27.5,17.4
	c-5,17.6,8.4,8.8,17.3,5.6c5.3-1.9,11.4-1,16.4-4.8C1277.1,586.4,1276.9,574.5,1270.9,572.1z"/>
<path id="XMLID_45_" fill="#C6A59B" d="M1223.1,604.2c-2.3-4.6-18.3,6.4-20.1,8.4c-3.9,4.4-5.4,11.6-1.8,16.3
	c4.8,0.1,8.2-4.4,12.4-7c2.2-1.4,4.8-2.2,6.9-3.7C1224.7,615.2,1225.3,608.5,1223.1,604.2z"/>
<path id="XMLID_46_" fill="#AD7B6F" d="M60.9,301.2c3.3,3.4,7.1,6.3,10.6,9.5c13.3,11.9,7.2,19.9,9.3,35.4c1,7.4,4.9,15.4,12.1,17.5
	c3.3-9.3,4.4-19.2,5.5-29.1c2.4-21.5,4.7-43.1,3.4-64.6c-1.6-25.7-11.3-48.8-19.7-72.4c-2.5-7-9.5-13.7-16.6-11.3
	c-1.3,0.5-2.6,1.3-3.2,2.6c-0.4,0.9-0.4,1.9-0.4,2.8c0.2,8.7,2.9,17.2,4.6,25.7c4.5,23-9.3,36.3-13.9,56.9c-1.6,7.4-0.2,15.4,4,21.7
	C57.9,297.9,59.4,299.6,60.9,301.2z"/>
<path id="XMLID_47_" fill="#AD7B6F" d="M409.9,678.8c0.7-2.1,0.1-4.4-1-6.3c-3.1-5.8-9.5-9.2-15.9-11c-15.9-4.5-50.9-22.3-33.8,7.4
	c4.2,7.4,13,21.3,22.3,22.7C385.9,692.4,408.2,683.8,409.9,678.8z"/>
<path id="XMLID_48_" fill="#AD7B6F" d="M237.5,574.6c0.9,1.9,1.6,3.9,2.1,6c0.9,3.5,1.5,7.4,4.1,9.9c3.2,3.2,8.7,3.1,12.7,1
	c18.5-9.5,8.3-17.5-2.1-29.1c-5.1-5.7-13.9-15.4-21.8-16.8c-16.4-2.9-7.7,12.1-1.4,19.2C233.7,567.7,235.8,571,237.5,574.6z"/>
<path id="XMLID_49_" fill="#AD7B6F" d="M1187.8,488.6c-1.5,2.6-2.8,5.4-3,8.4c-0.2,3,0.9,6.3,3.4,7.9c1.8,1.1,4,1.3,6.1,1.5
	c7.3,0.6,14.6,1.2,21.9,1.9c1.4,0.1,2.8,0.2,4.2-0.2c2.1-0.6,3.6-2.5,4.7-4.3c2.7-4.6,3.8-10,4.9-15.2c2.3-11.5,4.6-23,6.9-34.5
	c0.3-1.6,0.6-3.3-0.1-4.7c-1.5-3.1-6-2.8-9.2-1.6C1210.5,454,1196.4,473.3,1187.8,488.6z"/>
<path id="XMLID_50_" fill="#AD7B6F" d="M1315.9,180.3c-1.3-11.9,0.9-23.9,2.7-35.8c3.8-23.7,6.2-47.6,7.4-71.6
	c0.2-4.9-1-11.6-5.9-11.9c-2.2-0.1-4.2,1.2-5.9,2.6c-17.8,15.4-15.1,43.8-26.6,64.4c-5.3,9.6-14.1,18.6-12.9,29.5
	c1.4,12.8,14.5,21.3,17.9,33.7c3.5,13.2-9.9,22.7-5.8,35.6c2.5,7.6,11.1,11.8,14.2,19.2c1.9,4.5,1.5,9.7,2.7,14.4
	c1.2,4.7,5.3,9.6,10.1,8.7c5.7-1.1,6.9-8.5,8.4-14.2c2.4-9.3,14.7-14.8,14.3-24.2c-0.4-8.6-10.8-16.6-14-24.6
	C1319.2,198.1,1316.8,188.9,1315.9,180.3z"/>
<path id="XMLID_51_" fill="#AD7B6F" d="M1089.3,636.1c2.1-3.1,8.9-19.4,7-22.5c-1.3-2.2-4.5-2.1-7.1-1.7c-10.4,1.8-20.5,5-30.1,9.4
	c-5.1,2.3-10.2,10.2-4.4,15.1c1.4,1.2,3.2,1.6,5,1.9c7.2,1.3,14.5,1.9,21.7,1.8c1.5,0,3.1-0.1,4.4-0.7
	C1087.4,638.7,1088.4,637.4,1089.3,636.1z"/>
<path id="XMLID_52_" fill="#A06A5C" d="M1141.6,354.2c0.5,7.4,3.8,14.2,5.6,21.3c0.9,3.6,1.4,7.8-1.1,10.5c-6.2,7-19.7-4.9-26.6,1.5
	c-3,2.8-2.7,7.6-3.3,11.7s-4.2,8.8-8,7.2c-2.2-0.9-3.2-3.5-3.6-5.8c-1.9-9.5,0-19.5-1.6-29.1c-1.1-6.3-3.7-12.3-4.8-18.5
	c-1.5-8.5,0.4-18.8,9.9-21.2c3.6-0.9,7.3-0.9,10.9-1.9c8.2-2.2,14.2-9,19.3-15.9s10-14.2,17.4-18.3c1.4-0.8,3.4-1.4,4.6-0.2
	c0.5,0.5,0.7,1.2,0.8,1.8c1.1,4.7,0.9,9.6-0.6,14.2c-1.2,3.7-3.1,7.1-5,10.5C1149.3,332.9,1141.6,341.1,1141.6,354.2z"/>
<path id="XMLID_53_" fill="#A06A5C" d="M239.9,408c10.8,4.2,18.3,14.1,28.3,20c3,1.8,7.3,3,9.6,0.5c1.3-1.4,1.5-3.5,1.4-5.4
	c-0.6-11.9-10-21.4-19.9-28.1c-9.9-6.7-21-11.9-28.7-21c-21.5-25.4-6.1-65.9-19.9-96.1c-3.1-6.8-7.7-13-10.6-19.9
	c-6.1-14.7-4.3-32.1-12.1-46c-1.5-2.6-4.9-5.3-7.1-3.1c-0.9,0.9-1,2.2-1.1,3.5c-1.4,32.3,24.1,61.8,20.6,93.9
	c-1.4,12.7-7.3,25.1-5.2,37.7c1.5,9.3,6.7,17.7,3.4,27.3c-2.5,7-9.6,14.5-13.5,21c-2.9,4.9-5.9,11-3.1,16c2.4,4.4,8.4,5.7,13.4,4.7
	c5-1,9.5-3.6,14.4-4.9C218,405.8,231.7,404.9,239.9,408z"/>
<path id="XMLID_54_" fill="#A06A5C" d="M291.6,442c-19.6,1.5-5.4,28.8,7.7,31.1c3.8,0.7,8.2-0.8,9.7-4.3c1.1-2.5,0.5-5.5-0.2-8.2
	c-1.2-4.4-2.6-8.9-5.4-12.6C300.6,444.4,296.2,441.7,291.6,442z"/>
<path id="XMLID_55_" fill="#A06A5C" d="M1089.6,520.8c8.1-5.8,9.3-31.1,11.6-40.6c0.3-1.4,0.6-3-0.3-4.2c-0.6-0.7-1.5-1-2.3-1.1
	c-9.4-1.6-20.1,17.6-25.3,23.6c-3,3.4-4.6,8.5-5.9,12.9c-0.9,3.1-0.8,6.8,1.7,8.9c1.5,1.3,3.5,1.6,5.4,2
	C1079.6,523.1,1085.3,523.9,1089.6,520.8z"/>
<path id="XMLID_57_" fill="#4F3828" d="M629.8,694.3c1-0.7,1.7-1.6,2.7-2.3c3.1-2.3,8-1.5,10.7-4.4c2.1-2.3,1.8-6.2-0.2-8.6
	s-5.1-3.7-8.2-4.3c-6.2-1.2-23.3-6.3-22.1,4.5C613.3,685.4,622.2,699.4,629.8,694.3z"/>
</svg>
